# xmcd
#
# Track frame offsets:
#	183
#	16583
#	32363
#	48425
#	58948
#	71250
#	85510
#	98145
#	113540
#	127208
#	143153
#	158510
#	173375
#	190183
#	204808
#	219418
#	231313
#	244818
#
# Disc length: 3443 seconds
#
# Revision: 1
# Processed by: cddbd v1.5.2PL0 Copyright (c) Steve Scherf et al.
# Submitted via: audiograbber 1.83.01
#
DISCID=dd0d7112
DTITLE=Various Artist - Countrypak 5
DYEAR=1900
DGENRE=Country
TTITLE0=Ray Keating - A Single Maple Leaf
TTITLE1=Bill Candy - Baby You Mean So Much
TTITLE2=John C. Taylor - Chicken One Day (Feathers the Next)
TTITLE3=Mark C. Maxted - City Girl
TTITLE4=Robert Heath - Every Time You Cross a Heart It's Mine
TTITLE5=Larry Goguen - Green With Envy
TTITLE6=Laurie Thain - (You're Making) Hits Out of My Heartaches
TTITLE7=Midnight Travellers - I Placed a Ring on Your Finger
TTITLE8=Rick Tippe - Long Gone
TTITLE9=Mary Lynn Renn - My Turn Again
TTITLE10=Debbie Fleming - Simple Life
TTITLE11=Davey Drummond - Slippin' Away
TTITLE12=Danny Squire - (Back At) The Start
TTITLE13=Joyce Grennan - You Wouldn't Know
TTITLE14=Laurie Thain - Lady You're Gonna Lose Him
TTITLE15=Ray Keating - Run Terry Run
TTITLE16=Tim Taylor - Say When
TTITLE17=Larry Mercey - You're Still In These Carzy Arms of Mine
EXTD=
EXTT0=
EXTT1=
EXTT2=
EXTT3=
EXTT4=
EXTT5=
EXTT6=
EXTT7=
EXTT8=
EXTT9=
EXTT10=
EXTT11=
EXTT12=
EXTT13=
EXTT14=
EXTT15=
EXTT16=
EXTT17=
PLAYORDER=
